<svg width="46" height="46" viewBox="0 0 46 46" fill="none" xmlns="http://www.w3.org/2000/svg">
<rect width="46" height="46" rx="23" fill="#A22143"/>
<g clip-path="url(#clip0_282_346)">
<path fill-rule="evenodd" clip-rule="evenodd" d="M34.45 17.948C34.616 17.402 34.45 17 33.655 17H31.03C30.362 17 30.054 17.347 29.887 17.73C29.887 17.73 28.552 20.926 26.661 23.002C26.049 23.604 25.771 23.795 25.437 23.795C25.27 23.795 25.019 23.604 25.019 23.057V17.948C25.019 17.292 24.835 17 24.279 17H20.151C19.734 17 19.483 17.304 19.483 17.593C19.483 18.214 20.429 18.358 20.526 20.106V23.904C20.526 24.737 20.373 24.888 20.039 24.888C19.149 24.888 16.984 21.677 15.699 18.003C15.45 17.288 15.198 17 14.527 17H11.9C11.15 17 11 17.347 11 17.73C11 18.412 11.89 21.8 15.145 26.281C17.315 29.341 20.37 31 23.153 31C24.822 31 25.028 30.632 25.028 29.997V27.684C25.028 26.947 25.186 26.8 25.715 26.8C26.105 26.8 26.772 26.992 28.33 28.467C30.11 30.216 30.403 31 31.405 31H34.03C34.78 31 35.156 30.632 34.94 29.904C34.702 29.18 33.852 28.129 32.725 26.882C32.113 26.172 31.195 25.407 30.916 25.024C30.527 24.533 30.638 24.314 30.916 23.877C30.916 23.877 34.116 19.451 34.449 17.948H34.45Z" fill="#F8F8F8"/>
</g>
<defs>
<clipPath id="clip0_282_346">
<rect width="24" height="24" fill="white" transform="translate(11 12)"/>
</clipPath>
</defs>
</svg>
